# xmcd
#
# Track frame offsets: 
#        150
#        19970
#        35412
#        50800
#        71682
#        89505
#        107490
#        126197
#        147577
#
# Disc length: 2202 seconds
#
# Revision: 0
# Processed by: cddbd v1.5.2PL0 Copyright (c) Steve Scherf et al.
# Submitted via: ExactAudioCopy v0.99pb4
#
DISCID=85089809
DTITLE=Sarah McLachlan - Afterglow
DYEAR=2004
DGENRE=Folk
TTITLE0=World On Fire
TTITLE1=Stupid
TTITLE2=Drifting
TTITLE3=Train Wreck
TTITLE4=Push
TTITLE5=Answer
TTITLE6=Time
TTITLE7=Perfect Girl
TTITLE8=Dirty Little Secret
EXTD=
EXTT0=
EXTT1=
EXTT2=
EXTT3=
EXTT4=
EXTT5=
EXTT6=
EXTT7=
EXTT8=
PLAYORDER=
